# xmcd
# 
# Track frame offsets:
#     183
#     29133
#     82795
#     96470
#     114383
#     132920
#     162408
#     183720
#     207183
#     232958
# 
# Disc length: 3481
# 
# Revision: 7
# Processed by: cddbd v1.5.2PL0 Copyright (c) Steve Scherf et al.
# Submitted via: fre:ac v1.0.17
# 
DISCID=850d970a
DTITLE=Buddy Rich - Compact Jazz - Buddy Rich
DYEAR=1987
DGENRE=Jazz
TTITLE0=Jumpin' At The Woodside
TTITLE1=Broadway
TTITLE2=Yardbird Suite
TTITLE3=Toot Toot Tootsie
TTITLE4=Between The Devil And The Deep Blue Sea
TTITLE5=Bloody Mary
TTITLE6=From The Sticks
TTITLE7=Late Date
TTITLE8=Jump For Me
TTITLE9=A Night In Tunisia
EXTD=
EXTT0=
EXTT1=
EXTT2=
EXTT3=
EXTT4=
EXTT5=
EXTT6=
EXTT7=
EXTT8=
EXTT9=
PLAYORDER=
